<svg version="1" xmlns="http://www.w3.org/2000/svg" width="300" height="300" viewBox="0 0 225.000000 225.000000"><path d="M0 112.5V225h225V0H0v112.5zm173.7-68.3c-.6 5.5-2 20.4-4.1 44l-1.1 13.8h10.2c6.6 0 10.3.4 10.3 1.1 0 1.5-9.2 55.3-9.5 55.7-.2.3-7.5 3.6-35.5 16.4-2.5 1.2-10.3 4.7-17.3 7.9-7 3.3-13 5.9-13.2 5.9-.3 0-.5-5-.5-11v-11.1l-3.2.6c-8.1 1.3-51.1 7.5-52.7 7.5-1.3 0-2.4-2-4.4-8.6-2.7-8.5-20.3-62.1-21.4-64.9-.4-1.3 1.4-1.5 11.7-1.5 11.1 0 12.1-.1 11.6-1.8-2.3-7.4-10.4-38.8-10-39.1.2-.2 4.1-1 8.6-1.7 4.6-.7 12.6-1.9 17.8-2.7 5.2-.8 23-3.6 39.5-6.2s36.3-5.7 44-7c7.7-1.2 15.3-2.3 16.9-2.4l2.8-.1-.5 5.2z"/><path d="M133.8 77.7l-4.8.4V109h10c10.5 0 15.1-1.3 16.4-4.5 1.2-3.4.6-8.2-1.4-10-1.9-1.7-1.9-1.8 0-4.3 2.8-3.5 2.5-6.9-.9-10.3-3.1-3.1-5.1-3.3-19.3-2.2zm11.7 8.8c0 1.6-.8 2.1-3.7 2.3-3.5.3-3.8.1-3.8-2.3s.3-2.6 3.8-2.3c2.9.2 3.7.7 3.7 2.3zm1 13c0 1.5-.8 2.1-3.3 2.3-4.7.5-6.1-.3-5.5-2.8.5-1.8 1.2-2.1 4.7-1.8 3.3.2 4.1.7 4.1 2.3zM117.5 78.7c-3.3.2-7.5.5-9.2.8l-3.3.6V108h8.9c4.9 0 9.6.3 10.5.6 1.3.5 1.6-.2 1.6-3.5V101h-7.1c-6.2 0-7-.2-6.7-1.8.2-1.3 1.5-1.8 6-2 5.6-.3 5.6-.3 6-3.7l.4-3.5h-5.8c-5.1 0-5.8-.2-5.8-2s.7-2 6.5-2h6.5v-4c0-2.6-.4-3.9-1.2-3.8-.7.1-4 .3-7.3.5zM94.9 82.7c-.6 1.6-1.6 5.2-2.2 8-.6 2.9-1.4 5.3-1.8 5.3-.3 0-.9-1.7-1.3-3.8-.3-2-1.1-5.4-1.6-7.5-1-3.3-1.4-3.7-4.5-3.7s-3.5.4-4.5 3.7c-.5 2.1-1.3 5.5-1.6 7.5-.4 2.1-1 3.8-1.4 3.8-.4 0-1.3-3-2.1-6.8-1.2-5.8-1.7-6.7-3.7-7-5.1-.7-5.2-.1-2 12.8l3.1 12.1 4.1-.3c4.1-.3 4.1-.3 5.6-6.1.8-3.1 1.7-5.7 2.1-5.7.3 0 1.4 2.9 2.4 6.6l1.7 6.5 4.2-.3 4.1-.3L98.7 96c1.8-6.3 3.5-12.5 3.8-13.8.5-2 .2-2.2-3-2.2-2.9 0-3.7.5-4.6 2.7zM54 116.9v4l4.8.3 4.7.3.3 12.2c.3 12 .3 12.3 2.5 12.3 1.2 0 3.2-.3 4.5-.6 2.1-.6 2.2-1.1 2.2-12 0-11.3 0-11.4 2.5-12 1.4-.3 3.2-.4 4-.1 1 .4 1.6-.4 2.1-2.8.3-1.8.3-3.8-.1-4.4-.4-.7-5.6-1.1-14.1-1.1H54v3.9zM89.3 116c-4.3 2.6-6.7 7.4-6.7 13.5 0 6.4 2.6 10.9 7.9 13.5 9.9 4.8 19.8.3 22.6-10.2 1.2-4.2 1.1-5.3-.7-9.5-2.7-6.5-7-9.3-14.3-9.3-3.8 0-6.6.6-8.8 2zm14.1 8.2c5.2 7.4-2.7 16.4-9.5 10.9-2.9-2.3-3.1-8.1-.4-11.1 2.5-2.8 7.9-2.7 9.9.2zM125.6 115c-8.9 2.7-12.4 14.9-6.5 22.4 4.3 5.5 11.1 7 17.5 4 7.5-3.6 10.1-15.1 4.7-21.5-4.3-5.1-9.5-6.7-15.7-4.9zm9.4 9c2.7 2.7 2.5 6.6-.5 9.5-2.9 3-4.5 3.1-7.9.4-4.8-3.8-2.2-11.9 3.9-11.9 1.4 0 3.4.9 4.5 2zM147 128.1v13l3.8-.3 3.7-.3.3-5.9.3-5.9 4 5.6c3.5 4.9 4.5 5.7 7.3 5.7h3.3l.6-11.7c.4-6.5.3-12.1-.2-12.6s-2.1-.7-3.7-.5c-2.8.3-2.9.6-3.4 6.5l-.5 6.2-4.3-6.4c-3.9-5.9-4.6-6.5-7.8-6.5H147v13.1z"/></svg>